<svg width="19" height="13" viewBox="0 0 19 13" fill="none" xmlns="http://www.w3.org/2000/svg">
<path d="M15.0417 3.33334L11.875 6.5H14.25C14.25 9.12042 12.1204 11.25 9.5 11.25C8.70042 11.25 7.94042 11.0521 7.28333 10.6958L6.1275 11.8517C7.10125 12.4692 8.25708 12.8333 9.5 12.8333C12.9992 12.8333 15.8333 9.99917 15.8333 6.5H18.2083L15.0417 3.33334ZM4.75 6.5C4.75 3.87959 6.87958 1.75001 9.5 1.75001C10.2996 1.75001 11.0596 1.94792 11.7167 2.30417L12.8725 1.14834C11.8988 0.530838 10.7429 0.166672 9.5 0.166672C6.00083 0.166672 3.16667 3.00084 3.16667 6.5H0.791668L3.95833 9.66667L7.125 6.5H4.75Z" fill="black"/>
</svg>
